<?xml version="1.0" standalone="no"?><!DOCTYPE svg PUBLIC "-//W3C//DTD SVG 1.1//EN" "http://www.w3.org/Graphics/SVG/1.1/DTD/svg11.dtd"><svg t="1615167891014" class="icon" viewBox="0 0 5120 1024" version="1.1" xmlns="http://www.w3.org/2000/svg" p-id="6117" xmlns:xlink="http://www.w3.org/1999/xlink" width="1000" height="200"><defs><style type="text/css"></style></defs><path d="M614.286507 227.555556v90.339555a36.124444 36.124444 0 0 1-36.124445 36.124445H103.879396A103.822222 103.822222 0 0 0 0.000284 457.955556v-63.260445c0-13.994667 1.706667-27.619556 4.977778-40.647111a167.395556 167.395556 0 0 1 121.486222-121.486222A167.594667 167.594667 0 0 1 167.13984 227.555556h447.146667z" fill="#5D48DF" p-id="6118"></path><path d="M167.111396 769.592889c-13.994667 0-27.619556-1.706667-40.647112-4.977778a167.623111 167.623111 0 0 1-121.486222-121.514667A167.566222 167.566222 0 0 1 0.000284 602.453333V457.955556a103.822222 103.822222 0 0 1 103.879112-103.879112h57.002666a41.045333 41.045333 0 0 0-34.417778 34.759112 36.437333 36.437333 0 0 0 0 11.804444v196.437333a37.006222 37.006222 0 0 0 0 11.832889v56.803556A103.936 103.936 0 0 0 230.400284 769.592889H167.111396z" fill="#5D48DF" p-id="6119"></path><path d="M505.884729 435.342222v90.339556a36.124444 36.124444 0 0 1-36.124445 36.124444H126.464284v-126.464h34.417778l0.853334 0.085334a42.439111 42.439111 0 0 0 10.808888 0l0.824889-0.085334h332.515556zM614.286507 769.592889H230.400284a103.936 103.936 0 0 1-103.879111-103.879111v-56.832c0.967111 6.712889 3.555556 12.942222 7.424 18.204444a40.618667 40.618667 0 0 0 33.194667 16.981334c2.986667 0 5.888-0.312889 8.675556-0.967112h402.375111c19.968 0 36.124444 16.213333 36.124444 36.124445v90.368zM1142.784284 354.019556v63.232a36.124444 36.124444 0 0 1-36.124444 36.124444h-198.769778c-46.364444 0-87.210667 23.296-111.616 58.737778a134.542222 134.542222 0 0 0-23.893333 76.8v180.679111h-99.356445v-158.094222h1.080889a234.894222 234.894222 0 0 1 11.747556-99.384889 235.093333 235.093333 0 0 1 86.528-115.086222 233.557333 233.557333 0 0 1 135.509333-43.008h234.894222z" fill="#5D48DF" p-id="6120"></path><path d="M1522.204729 354.019556v99.384888h-167.139556a108.430222 108.430222 0 0 0 0 216.803556h167.139556v99.384889h-167.139556a206.961778 206.961778 0 0 1-108.401777-30.492445 208.355556 208.355556 0 0 1-68.892445-68.892444 206.848 206.848 0 0 1-30.492444-108.401778c0-39.736889 11.178667-76.828444 30.492444-108.401778a208.355556 208.355556 0 0 1 68.892445-68.892444 206.961778 206.961778 0 0 1 108.401777-30.492444h167.139556z" fill="#5D48DF" p-id="6121"></path><path d="M1517.682062 769.592889h99.356445V227.555556h-63.232a36.124444 36.124444 0 0 0-36.124445 36.124444v505.912889z" fill="#5D48DF" p-id="6122"></path><path d="M2145.536284 769.592889h-99.384888V482.759111c0-16.213333-13.141333-29.354667-29.354667-29.354667h-205.511111a36.124444 36.124444 0 0 1-36.124445-36.124444v-63.260444h241.635556a128.568889 128.568889 0 0 1 128.739555 128.739555v286.833778z" fill="#5D48DF" p-id="6123"></path><path d="M1804.51584 670.208h246.158222v99.384889h-246.186666c-10.097778 0-19.911111-1.194667-29.354667-3.441778a128.568889 128.568889 0 0 1-99.356445-125.297778 128.568889 128.568889 0 0 1 128.739556-128.739555h246.158222v99.384889h-246.186666a29.354667 29.354667 0 1 0 0 58.709333z" fill="#5D48DF" p-id="6124"></path><path d="M2553.002951 658.005333h294.968889c19.143111 0 34.702222 15.530667 34.702222 34.702223v86.755555H2553.002951A260.408889 260.408889 0 0 1 2292.736284 519.196444 260.408889 260.408889 0 0 1 2553.002951 258.929778h329.671111v121.457778H2553.002951a138.808889 138.808889 0 0 0 0 277.617777z" fill="#5D48DF" opacity=".6" p-id="6125"></path><path d="M3294.720284 718.705778v60.728889h-232.049777a123.448889 123.448889 0 0 1-123.619556-123.619556V258.929778h95.431111v396.885333c0 15.587556 12.629333 28.188444 28.188445 28.188445h197.376c19.171556 0 34.702222 15.559111 34.702222 34.702222zM3706.823396 647.139556a28.188444 28.188444 0 0 1-28.188445 28.188444h-203.889778a28.188444 28.188444 0 0 1-28.16-28.16v-151.836444c0-15.587556 12.600889-28.188444 28.16-28.188445h203.889778c15.559111 0 28.188444 12.600889 28.188445 28.16v151.836445z m92.131555-179.996445a123.448889 123.448889 0 0 0-120.32-95.431111h-203.889778a123.448889 123.448889 0 0 0-123.619555 123.619556v151.808a123.448889 123.448889 0 0 0 123.619555 123.619555h203.889778a123.448889 123.448889 0 0 0 123.619556-123.619555v-151.808c0-9.728-1.137778-19.143111-3.299556-28.188445z" fill="#5D48DF" opacity=".6" p-id="6126"></path><path d="M4223.004729 684.003556v95.431111h-240.725333a123.448889 123.448889 0 0 1-123.619556-123.619556v-275.427555h60.700444c19.171556 0 34.702222 15.530667 34.702223 34.702222v240.725333c0 15.587556 12.629333 28.188444 28.216889 28.188445h240.725333z" fill="#5D48DF" opacity=".6" p-id="6127"></path><path d="M4214.329173 779.434667h95.431111v-399.075556h-95.431111z" fill="#5D48DF" opacity=".6" p-id="6128"></path><path d="M4721.834951 380.387556v95.431111h-156.16a104.021333 104.021333 0 0 0-104.106667 104.106666 104.021333 104.021333 0 0 0 104.106667 104.106667h156.16V779.463111h-156.16a198.627556 198.627556 0 0 1-104.106667-29.297778 200.504889 200.504889 0 0 1-66.161777-66.133333A198.656 198.656 0 0 1 4366.137173 579.925333a198.826667 198.826667 0 0 1 29.297778-104.106666 200.106667 200.106667 0 0 1 66.133333-66.161778 198.656 198.656 0 0 1 104.106667-29.297778h156.16z" fill="#5D48DF" opacity=".6" p-id="6129"></path><path d="M4721.834951 779.463111h95.431111V258.929778h-60.728889a34.702222 34.702222 0 0 0-34.702222 34.702222V779.463111z" fill="#5D48DF" opacity=".6" p-id="6130"></path></svg>